# xmcd CD database file
# Copyright (C) 1996 Ti Kan
#
# Track frame offsets:
#  150
#  16845
#  34762
#  48397
#  64860
#  83602
#  96987
#  116540
#  131337
#  145567
#
# Disc length: 2117 seconds
#
# Revision: 1
# Processed by: cddbd v1.4b41PL1 Copyright (c) Steve Scherf et al.
# Submitted via: CDWizzard Release:4.13
#
DISCID=7808430a
DTITLE=Emmylou Harris - Songs Of The West
DYEAR=1900
DGENRE=
TTITLE0=I'll Be Your San Antone Rose
TTITLE1=Even Cowgirls Get The Blues
TTITLE2=Amarillo
TTITLE3=The Sweetheart Of The Rodeo
TTITLE4=Queen Of The Silver Dollar
TTITLE5=One Paper Kid
TTITLE6=Rose Of Cimarron
TTITLE7=Spanish Is A Loving Tongue
TTITLE8=Cattle Call
TTITLE9=Montana Cowgirl
EXTD=
EXTT0=
EXTT1=
EXTT2=
EXTT3=
EXTT4=
EXTT5=
EXTT6=
EXTT7=
EXTT8=
EXTT9=
PLAYORDER=
